{
  "accessors": [
    {
      "bufferView": 2,
      "componentType": 5126,
      "count": 1082,
      "max": [
        15.022500991821289,
        29.912506103515625,
        3.9999985694885254
      ],
      "min": [
        -15.00003433227539,
        -0.047830045223236084,
        -3.9999985694885254
      ],
      "type": "VEC3"
    },
    {
      "bufferView": 2,
      "byteOffset": 12984,
      "componentType": 5126,
      "count": 1082,
      "max": [
        1.0,
        1.0,
        1.0
      ],
      "min": [
        -1.0,
        -1.0,
        -1.0
      ],
      "type": "VEC3"
    },
    {
      "bufferView": 3,
      "componentType": 5126,
      "count": 1082,
      "max": [
        1.0,
        0.839568555355072,
        1.0,
        1.0
      ],
      "min": [
        -1.0,
        -0.8383142948150635,
        -1.0,
        1.0
      ],
      "type": "VEC4"
    },
    {
      "bufferView": 1,
      "componentType": 5126,
      "count": 1082,
      "max": [
        0.9936847686767578,
        0.9923390746116638
      ],
      "min": [
        0.006727099418640137,
        0.007475465536117554
      ],
      "type": "VEC2"
    },
    {
      "bufferView": 0,
      "componentType": 5125,
      "count": 5526,
      "type": "SCALAR"
    },
    {
      "bufferView": 2,
      "byteOffset": 25968,
      "componentType": 5126,
      "count": 248,
      "max": [
        14.100263595581055,
        30.642179489135742,
        3.163297176361084
      ],
      "min": [
        7.773669242858887,
        27.986284255981445,
        -3.163297176361084
      ],
      "type": "VEC3"
    },
    {
      "bufferView": 2,
      "byteOffset": 28944,
      "componentType": 5126,
      "count": 248,
      "max": [
        1.0,
        1.0,
        1.0
      ],
      "min": [
        -1.0,
        -1.0,
        -1.0
      ],
      "type": "VEC3"
    },
    {
      "bufferView": 3,
      "byteOffset": 17312,
      "componentType": 5126,
      "count": 248,
      "max": [
        1.0,
        0.9959491491317749,
        1.0,
        1.0
      ],
      "min": [
        -1.0,
        -0.995959997177124,
        -1.0,
        1.0
      ],
      "type": "VEC4"
    },
    {
      "bufferView": 1,
      "byteOffset": 8656,
      "componentType": 5126,
      "count": 248,
      "max": [
        0.9891055822372437,
        0.9887219667434692
      ],
      "min": [
        0.01673787832260132,
        0.06998443603515625
      ],
      "type": "VEC2"
    },
    {
      "bufferView": 0,
      "byteOffset": 22104,
      "componentType": 5125,
      "count": 972,
      "type": "SCALAR"
    },
    {
      "bufferView": 2,
      "byteOffset": 31920,
      "componentType": 5126,
      "count": 26,
      "max": [
        13.707246780395508,
        28.36993408203125,
        2.770284414291382
      ],
      "min": [
        8.166685104370117,
        26.52996826171875,
        -2.770284414291382
      ],
      "type": "VEC3"
    },
    {
      "bufferView": 2,
      "byteOffset": 32232,
      "componentType": 5126,
      "count": 26,
      "max": [
        1.0,
        0.0,
        1.0
      ],
      "min": [
        -1.0,
        0.0,
        -1.0
      ],
      "type": "VEC3"
    },
    {
      "bufferView": 3,
      "byteOffset": 21280,
      "componentType": 5126,
      "count": 26,
      "max": [
        0.00011571001959964633,
        -1.0,
        0.00011858548532472923,
        1.0
      ],
      "min": [
        -0.00011786722461692989,
        -1.0,
        -0.00012289744336158037,
        1.0
      ],
      "type": "VEC4"
    },
    {
      "bufferView": 1,
      "byteOffset": 10640,
      "componentType": 5126,
      "count": 26,
      "max": [
        0.9810166954994202,
        0.8062235713005066
      ],
      "min": [
        0.9542841911315918,
        0.5564853549003601
      ],
      "type": "VEC2"
    },
    {
      "bufferView": 0,
      "byteOffset": 25992,
      "componentType": 5125,
      "count": 72,
      "type": "SCALAR"
    },
    {
      "bufferView": 2,
      "byteOffset": 32544,
      "componentType": 5126,
      "count": 42,
      "max": [
        8.057294845581055,
        28.405452728271484,
        0.6374594569206238
      ],
      "min": [
        6.5900702476501465,
        27.033409118652344,
        -0.637458860874176
      ],
      "type": "VEC3"
    },
    {
      "bufferView": 2,
      "byteOffset": 33048,
      "componentType": 5126,
      "count": 42,
      "max": [
        0.9033403396606445,
        0.9831869006156921,
        0.8630864024162292
      ],
      "min": [
        -0.7266654968261719,
        -0.7548184394836426,
        -0.8630863428115845
      ],
      "type": "VEC3"
    },
    {
      "bufferView": 3,
      "byteOffset": 21696,
      "componentType": 5126,
      "count": 42,
      "max": [
        1.0,
        0.9268271923065186,
        0.6007363200187683,
        1.0
      ],
      "min": [
        -1.0,
        -0.872276246547699,
        -0.5861204266548157,
        1.0
      ],
      "type": "VEC4"
    },
    {
      "bufferView": 1,
      "byteOffset": 10848,
      "componentType": 5126,
      "count": 42,
      "max": [
        0.2596296966075897,
        0.4007871747016907
      ],
      "min": [
        0.12128138542175293,
        0.18140125274658203
      ],
      "type": "VEC2"
    },
    {
      "bufferView": 0,
      "byteOffset": 26280,
      "componentType": 5125,
      "count": 108,
      "type": "SCALAR"
    },
    {
      "bufferView": 2,
      "byteOffset": 33552,
      "componentType": 5126,
      "count": 56,
      "max": [
        14.100263595581055,
        27.84625244140625,
        3.163297176361084
      ],
      "min": [
        7.773669242858887,
        27.03340721130371,
        -3.163297176361084
      ],
      "type": "VEC3"
    },
    {
      "bufferView": 2,
      "byteOffset": 34224,
      "componentType": 5126,
      "count": 56,
      "max": [
        0.9368767738342285,
        1.0,
        0.936876654624939
      ],
      "min": [
        -0.936876654624939,
        -1.0,
        -0.936876654624939
      ],
      "type": "VEC3"
    },
    {
      "bufferView": 3,
      "byteOffset": 22368,
      "componentType": 5126,
      "count": 56,
      "max": [
        0.9995127320289612,
        0.08740078657865524,
        0.9956403970718384,
        1.0
      ],
      "min": [
        -0.9995128512382507,
        -0.08739802241325378,
        -0.9956398606300354,
        1.0
      ],
      "type": "VEC4"
    },
    {
      "bufferView": 1,
      "byteOffset": 11184,
      "componentType": 5126,
      "count": 56,
      "max": [
        0.9891054034233093,
        0.9755250811576843
      ],
      "min": [
        0.08897396922111511,
        0.0290602445602417
      ],
      "type": "VEC2"
    },
    {
      "bufferView": 0,
      "byteOffset": 26712,
      "componentType": 5125,
      "count": 216,
      "type": "SCALAR"
    },
    {
      "bufferView": 2,
      "byteOffset": 34896,
      "componentType": 5126,
      "count": 29,
      "max": [
        14.293795585632324,
        28.308345794677734,
        0.6374595165252686
      ],
      "min": [
        13.80925178527832,
        27.033409118652344,
        -0.637458860874176
      ],
      "type": "VEC3"
    },
    {
      "bufferView": 2,
      "byteOffset": 35244,
      "componentType": 5126,
      "count": 29,
      "max": [
        0.9451649188995361,
        0.33791273832321167,
        0.7913862466812134
      ],
      "min": [
        -0.9530763626098633,
        -0.343535840511322,
        -0.791386067867279
      ],
      "type": "VEC3"
    },
    {
      "bufferView": 3,
      "byteOffset": 23264,
      "componentType": 5126,
      "count": 29,
      "max": [
        0.812470555305481,
        0.27522704005241394,
        0.9999947547912598,
        1.0
      ],
      "min": [
        -0.8180752396583557,
        -0.2858653962612152,
        -0.6900575757026672,
        1.0
      ],
      "type": "VEC4"
    },
    {
      "bufferView": 1,
      "byteOffset": 11632,
      "componentType": 5126,
      "count": 29,
      "max": [
        0.302212655544281,
        0.42620736360549927
      ],
      "min": [
        0.25475263595581055,
        0.3443850874900818
      ],
      "type": "VEC2"
    },
    {
      "bufferView": 0,
      "byteOffset": 27576,
      "componentType": 5125,
      "count": 108,
      "type": "SCALAR"
    },
    {
      "bufferView": 2,
      "byteOffset": 35592,
      "componentType": 5126,
      "count": 138,
      "max": [
        14.051071166992188,
        30.63859748840332,
        2.7138679027557373
      ],
      "min": [
        7.8228607177734375,
        28.32904624938965,
        -2.713867664337158
      ],
      "type": "VEC3"
    },
    {
      "bufferView": 2,
      "byteOffset": 37248,
      "componentType": 5126,
      "count": 138,
      "max": [
        1.0,
        1.0,
        0.9997340440750122
      ],
      "min": [
        -1.0,
        0.0,
        -0.9997340440750122
      ],
      "type": "VEC3"
    },
    {
      "bufferView": 3,
      "byteOffset": 23728,
      "componentType": 5126,
      "count": 138,
      "max": [
        0.9999655485153198,
        0.9981500506401062,
        1.0,
        1.0
      ],
      "min": [
        -0.9999655485153198,
        -0.02162081189453602,
        -1.0,
        1.0
      ],
      "type": "VEC4"
    },
    {
      "bufferView": 1,
      "byteOffset": 11864,
      "componentType": 5126,
      "count": 138,
      "max": [
        0.4333488345146179,
        0.44498634338378906
      ],
      "min": [
        0.0066484082490205765,
        0.15894395112991333
      ],
      "type": "VEC2"
    },
    {
      "bufferView": 0,
      "byteOffset": 28008,
      "componentType": 5125,
      "count": 360,
      "type": "SCALAR"
    }
  ],
  "asset": {
    "extras": {
      "author": "Ilya Ostrovsky (https://sketchfab.com/strov)",
      "license": "CC-BY-4.0 (http://creativecommons.org/licenses/by/4.0/)",
      "source": "https://sketchfab.com/3d-models/gasoline-canister-a20a6b9c97fb4197817e5e1c99756f5e",
      "title": "Gasoline Canister"
    },
    "generator": "Sketchfab-11.49.6",
    "version": "2.0"
  },
  "bufferViews": [
    {
      "buffer": 0,
      "byteLength": 29448,
      "name": "floatBufferViews",
      "target": 34963
    },
    {
      "buffer": 0,
      "byteLength": 12968,
      "byteOffset": 29448,
      "byteStride": 8,
      "name": "floatBufferViews",
      "target": 34962
    },
    {
      "buffer": 0,
      "byteLength": 38904,
      "byteOffset": 42416,
      "byteStride": 12,
      "name": "floatBufferViews",
      "target": 34962
    },
    {
      "buffer": 0,
      "byteLength": 25936,
      "byteOffset": 81320,
      "byteStride": 16,
      "name": "floatBufferViews",
      "target": 34962
    }
  ],
  "buffers": [
    {
      "byteLength": 107256,
      "uri": "scene.bin"
    }
  ],
  "extensionsRequired": [
    "KHR_materials_pbrSpecularGlossiness"
  ],
  "extensionsUsed": [
    "KHR_materials_pbrSpecularGlossiness"
  ],
  "images": [
    {
      "uri": "textures/jerrycan_mat_diffuse.png"
    },
    {
      "uri": "textures/jerrycan_mat_specularGlossiness.png"
    },
    {
      "uri": "textures/jerrycan_mat_normal.png"
    },
    {
      "uri": "textures/jerrycan_mat_occlusion.png"
    }
  ],
  "materials": [
    {
      "extensions": {
        "KHR_materials_pbrSpecularGlossiness": {
          "diffuseFactor": [
            0.85,
            0.85,
            0.85,
            1.0
          ],
          "diffuseTexture": {
            "index": 0
          },
          "glossinessFactor": 1.0,
          "specularFactor": [
            1.0,
            1.0,
            1.0
          ],
          "specularGlossinessTexture": {
            "index": 1
          }
        }
      },
      "name": "jerrycan_mat",
      "normalTexture": {
        "index": 2
      },
      "occlusionTexture": {
        "index": 3,
        "strength": 0.85
      }
    }
  ],
  "meshes": [
    {
      "name": "jerrycan_geo_low_jerrycan_mat_0",
      "primitives": [
        {
          "attributes": {
            "NORMAL": 1,
            "POSITION": 0,
            "TANGENT": 2,
            "TEXCOORD_0": 3
          },
          "indices": 4,
          "material": 0,
          "mode": 4
        }
      ]
    },
    {
      "name": "surface01_geo_low_jerrycan_mat_0",
      "primitives": [
        {
          "attributes": {
            "NORMAL": 6,
            "POSITION": 5,
            "TANGENT": 7,
            "TEXCOORD_0": 8
          },
          "indices": 9,
          "material": 0,
          "mode": 4
        }
      ]
    },
    {
      "name": "surface02_geo_low_jerrycan_mat_0",
      "primitives": [
        {
          "attributes": {
            "NORMAL": 11,
            "POSITION": 10,
            "TANGENT": 12,
            "TEXCOORD_0": 13
          },
          "indices": 14,
          "material": 0,
          "mode": 4
        }
      ]
    },
    {
      "name": "surface03_geo_low_jerrycan_mat_0",
      "primitives": [
        {
          "attributes": {
            "NORMAL": 16,
            "POSITION": 15,
            "TANGENT": 17,
            "TEXCOORD_0": 18
          },
          "indices": 19,
          "material": 0,
          "mode": 4
        }
      ]
    },
    {
      "name": "surface04_geo_low_jerrycan_mat_0",
      "primitives": [
        {
          "attributes": {
            "NORMAL": 21,
            "POSITION": 20,
            "TANGENT": 22,
            "TEXCOORD_0": 23
          },
          "indices": 24,
          "material": 0,
          "mode": 4
        }
      ]
    },
    {
      "name": "surface05_geo_low_jerrycan_mat_0",
      "primitives": [
        {
          "attributes": {
            "NORMAL": 26,
            "POSITION": 25,
            "TANGENT": 27,
            "TEXCOORD_0": 28
          },
          "indices": 29,
          "material": 0,
          "mode": 4
        }
      ]
    },
    {
      "name": "surface06_geo_low_jerrycan_mat_0",
      "primitives": [
        {
          "attributes": {
            "NORMAL": 31,
            "POSITION": 30,
            "TANGENT": 32,
            "TEXCOORD_0": 33
          },
          "indices": 34,
          "material": 0,
          "mode": 4
        }
      ]
    }
  ],
  "nodes": [
    {
      "children": [
        1
      ],
      "matrix": [
        1.0,
        0.0,
        0.0,
        0.0,
        0.0,
        2.220446049250313e-16,
        -1.0,
        0.0,
        0.0,
        1.0,
        2.220446049250313e-16,
        0.0,
        0.0,
        0.0,
        0.0,
        1.0
      ],
      "name": "Sketchfab_model"
    },
    {
      "children": [
        2
      ],
      "matrix": [
        0.009999999776482582,
        0.0,
        0.0,
        0.0,
        0.0,
        0.0,
        0.009999999776482582,
        0.0,
        0.0,
        -0.009999999776482582,
        0.0,
        0.0,
        0.0,
        0.0,
        0.0,
        1.0
      ],
      "name": "jerrycan_low.fbx"
    },
    {
      "children": [
        3
      ],
      "name": "RootNode"
    },
    {
      "children": [
        4,
        6
      ],
      "name": "jerrycan_grp_low"
    },
    {
      "children": [
        5
      ],
      "name": "jerrycan_geo_low"
    },
    {
      "mesh": 0,
      "name": "jerrycan_geo_low_jerrycan_mat_0"
    },
    {
      "children": [
        7,
        9,
        11,
        13,
        15,
        17
      ],
      "name": "cap_grp_low"
    },
    {
      "children": [
        8
      ],
      "name": "surface01_geo_low"
    },
    {
      "mesh": 1,
      "name": "surface01_geo_low_jerrycan_mat_0"
    },
    {
      "children": [
        10
      ],
      "name": "surface02_geo_low"
    },
    {
      "mesh": 2,
      "name": "surface02_geo_low_jerrycan_mat_0"
    },
    {
      "children": [
        12
      ],
      "name": "surface03_geo_low"
    },
    {
      "mesh": 3,
      "name": "surface03_geo_low_jerrycan_mat_0"
    },
    {
      "children": [
        14
      ],
      "name": "surface04_geo_low"
    },
    {
      "mesh": 4,
      "name": "surface04_geo_low_jerrycan_mat_0"
    },
    {
      "children": [
        16
      ],
      "name": "surface05_geo_low"
    },
    {
      "mesh": 5,
      "name": "surface05_geo_low_jerrycan_mat_0"
    },
    {
      "children": [
        18
      ],
      "name": "surface06_geo_low"
    },
    {
      "mesh": 6,
      "name": "surface06_geo_low_jerrycan_mat_0"
    }
  ],
  "samplers": [
    {
      "magFilter": 9729,
      "minFilter": 9987,
      "wrapS": 10497,
      "wrapT": 10497
    }
  ],
  "scene": 0,
  "scenes": [
    {
      "name": "Sketchfab_Scene",
      "nodes": [
        0
      ]
    }
  ],
  "textures": [
    {
      "sampler": 0,
      "source": 0
    },
    {
      "sampler": 0,
      "source": 1
    },
    {
      "sampler": 0,
      "source": 2
    },
    {
      "sampler": 0,
      "source": 3
    }
  ]
}
